<?xml version="1.0" standalone="no"?>
 <!DOCTYPE svg PUBLIC "-//W3C//DTD SVG 1.1//EN" 
 "http://www.w3.org/Graphics/SVG/1.1/DTD/svg11.dtd"> 
<svg xmlns="http://www.w3.org/2000/svg" version="1.1" 
    width="29.7002cm" height="21.0007cm" viewBox="0 0 116930 82680 ">
<title>SVG Picture created as ROSpberryCar_boardIMUpower-F_Mask.svg date 2013/12/28 00:09:19 </title>
  <desc>Picture generated by PCBNEW </desc>
<g style="fill:#000000; fill-opacity:1;stroke:#000000; stroke-opacity:1;
stroke-linecap:round; stroke-linejoin:round; "
 transform="translate(0 0) scale(1 1)">
</g>
<g style="fill:#000000; fill-opacity:0.0; 
stroke:#000000; stroke-width:39.3701; stroke-opacity:1; 
stroke-linecap:round; stroke-linejoin:round;">
<rect x="-845466" y="-845466" width="0" height="0" rx="0" />
<rect x="-845466" y="-845466" width="0" height="0" rx="0" />
<path d="M-845466 -845466
L-845466 -845466
" />
<path d="M-845466 -845466
L-845466 -845466
" />
<path d="M-845466 -845466
L-845466 -845466
" />
<path d="M-845466 -845466
L-845466 -845466
" />
<path d="M-845466 -845466
L-845466 -845466
" />
<path d="M-845353 -845227
L-845269 -845199
L-845128 -845199
L-845072 -845227
L-845044 -845255
L-845016 -845311
L-845016 -845367
L-845044 -845423
L-845072 -845451
L-845128 845451
L-845241 845423
L-845297 845395
L-845325 845367
L-845353 845311
L-845353 845255
L-845325 845199
L-845297 845171
L-845241 845142
L-845100 845142
L-845016 845171
" />
<path d="M-844763 -845199
L-844763 845142
" />
<path d="M-844510 -845199
L-844510 845423
L-844538 845367
L-844595 845339
L-844679 845339
L-844735 845367
L-844763 845395
" />
<path d="M-844005 -845227
L-844061 -845199
L-844173 -845199
L-844229 -845227
L-844257 -845283
L-844257 845423
L-844229 845367
L-844173 845339
L-844061 845339
L-844005 845367
L-843976 845423
L-843976 -845451
L-844257 -845395
" />
<path d="M-843499 -845227
L-843555 -845199
L-843667 -845199
L-843724 -845227
L-843752 -845283
L-843752 845423
L-843724 845367
L-843667 845339
L-843555 845339
L-843499 845367
L-843471 845423
L-843471 -845451
L-843752 -845395
" />
<path d="M-843302 845339
L-843077 845339
" />
<path d="M-843218 845142
L-843218 -845283
L-843190 -845227
L-843134 -845199
L-843077 -845199
" />
<path d="M-842881 -845255
L-842853 -845227
L-842881 -845199
L-842909 -845227
L-842881 -845255
L-842881 -845199
" />
<path d="M-842881 845367
L-842853 845395
L-842881 845423
L-842909 845395
L-842881 845367
L-842881 845423
" />
<path d="M-841729 845114
L-842235 -845058
" />
<path d="M-841532 -845199
L-841532 845142
" />
<path d="M-841279 -845199
L-841279 845423
L-841307 845367
L-841364 845339
L-841448 845339
L-841504 845367
L-841532 845395
" />
<path d="M-840914 -845199
L-840970 -845227
L-840998 -845255
L-841026 -845311
L-841026 845451
L-840998 845395
L-840970 845367
L-840914 845339
L-840830 845339
L-840774 845367
L-840746 845395
L-840717 845451
L-840717 -845311
L-840746 -845255
L-840774 -845227
L-840830 -845199
L-840914 -845199
" />
<path d="M-840465 -845199
L-840465 845339
" />
<path d="M-840465 845395
L-840436 845367
L-840380 845339
L-840296 845339
L-840240 845367
L-840212 845423
L-840212 -845199
" />
<path d="M-840212 845423
L-840184 845367
L-840127 845339
L-840043 845339
L-839987 845367
L-839959 845423
L-839959 -845199
" />
<path d="M-839453 -845227
L-839509 -845199
L-839622 -845199
L-839678 -845227
L-839706 -845283
L-839706 845423
L-839678 845367
L-839622 845339
L-839509 845339
L-839453 845367
L-839425 845423
L-839425 -845451
L-839706 -845395
" />
<path d="M-838751 845114
L-839256 -845058
" />
<path d="M-838554 845339
L-838554 -845086
L-838582 -845030
L-838638 -845002
L-838666 -845002
" />
<path d="M-838554 845142
L-838582 845171
L-838554 845199
L-838526 845171
L-838554 845142
L-838554 845199
" />
<path d="M-838189 -845199
L-838245 -845227
L-838273 -845255
L-838301 -845311
L-838301 845451
L-838273 845395
L-838245 845367
L-838189 845339
L-838105 845339
L-838048 845367
L-838020 845395
L-837992 845451
L-837992 -845311
L-838020 -845255
L-838048 -845227
L-838105 -845199
L-838189 -845199
" />
<path d="M-837486 -845199
L-837486 845423
L-837515 845367
L-837571 845339
L-837683 845339
L-837739 845367
" />
<path d="M-837486 -845227
L-837543 -845199
L-837683 -845199
L-837739 -845227
L-837767 -845283
L-837767 -845339
L-837739 -845395
L-837683 -845423
L-837543 -845423
L-837486 -845451
" />
<path d="M-837121 -845199
L-837177 -845227
L-837206 -845255
L-837234 -845311
L-837234 845451
L-837206 845395
L-837177 845367
L-837121 845339
L-837037 845339
L-836981 845367
L-836953 845395
L-836925 845451
L-836925 -845311
L-836953 -845255
L-836981 -845227
L-837037 -845199
L-837121 -845199
" />
<path d="M-836250 845114
L-836756 -845058
" />
<path d="M-836054 -845199
L-836054 845142
" />
<path d="M-835997 -845423
L-835829 -845199
" />
<path d="M-835829 845339
L-836054 -845367
" />
<path d="M-835576 -845199
L-835576 845339
" />
<path d="M-835576 845142
L-835604 845171
L-835576 845199
L-835548 845171
L-835576 845142
L-835576 845199
" />
<path d="M-835042 -845227
L-835098 -845199
L-835211 -845199
L-835267 -845227
L-835295 -845255
L-835323 -845311
L-835323 845451
L-835295 845395
L-835267 845367
L-835211 845339
L-835098 845339
L-835042 845367
" />
<path d="M-834536 -845199
L-834536 845423
L-834565 845367
L-834621 845339
L-834733 845339
L-834789 845367
" />
<path d="M-834536 -845227
L-834593 -845199
L-834733 -845199
L-834789 -845227
L-834817 -845283
L-834817 -845339
L-834789 -845395
L-834733 -845423
L-834593 -845423
L-834536 -845451
" />
<path d="M-834003 -845199
L-834003 845142
" />
<path d="M-834003 -845227
L-834059 -845199
L-834171 -845199
L-834227 -845227
L-834256 -845255
L-834284 -845311
L-834284 845451
L-834256 845395
L-834227 845367
L-834171 845339
L-834059 845339
L-834003 845367
" />
<path d="M-833300 845114
L-833806 -845058
" />
<path d="M-832766 -845199
L-832963 845451
" />
<path d="M-833104 -845199
L-833104 845142
L-832879 845142
L-832823 845171
L-832795 845199
L-832766 845255
L-832766 845339
L-832795 845395
L-832823 845423
L-832879 845451
L-833104 845451
" />
<path d="M-832401 845142
L-832289 845142
L-832233 845171
L-832176 845227
L-832148 845339
L-832148 -845395
L-832176 -845283
L-832233 -845227
L-832289 -845199
L-832401 -845199
L-832457 -845227
L-832514 -845283
L-832542 -845395
L-832542 845339
L-832514 845227
L-832457 845171
L-832401 845142
" />
<path d="M-831924 -845227
L-831839 -845199
L-831699 -845199
L-831643 -845227
L-831615 -845255
L-831586 -845311
L-831586 -845367
L-831615 -845423
L-831643 -845451
L-831699 845451
L-831811 845423
L-831867 845395
L-831896 845367
L-831924 845311
L-831924 845255
L-831896 845199
L-831867 845171
L-831811 845142
L-831671 845142
L-831586 845171
" />
<path d="M-831334 845339
L-831334 -845002
" />
<path d="M-831334 845367
L-831277 845339
L-831165 845339
L-831109 845367
L-831081 845395
L-831053 845451
L-831053 -845311
L-831081 -845255
L-831109 -845227
L-831165 -845199
L-831277 -845199
L-831334 -845227
" />
<path d="M-830800 -845199
L-830800 845142
" />
<path d="M-830800 845367
L-830744 845339
L-830631 845339
L-830575 845367
L-830547 845395
L-830519 845451
L-830519 -845311
L-830547 -845255
L-830575 -845227
L-830631 -845199
L-830744 -845199
L-830800 -845227
" />
<path d="M-830041 -845227
L-830097 -845199
L-830210 -845199
L-830266 -845227
L-830294 -845283
L-830294 845423
L-830266 845367
L-830210 845339
L-830097 845339
L-830041 845367
L-830013 845423
L-830013 -845451
L-830294 -845395
" />
<path d="M-829760 -845199
L-829760 845339
" />
<path d="M-829760 845451
L-829732 845395
L-829704 845367
L-829648 845339
L-829592 845339
" />
<path d="M-829395 -845199
L-829395 845339
" />
<path d="M-829395 845451
L-829367 845395
L-829339 845367
L-829283 845339
L-829226 845339
" />
<path d="M-829086 845339
L-828946 -845199
" />
<path d="M-828805 845339
L-828946 -845199
L-829002 -845058
L-829030 -845030
L-829086 -845002
" />
<path d="M-828243 -845255
L-828271 -845227
L-828356 -845199
L-828412 -845199
L-828496 -845227
L-828552 -845283
L-828580 -845339
L-828608 -845451
L-828608 845395
L-828580 845283
L-828552 845227
L-828496 845171
L-828412 845142
L-828356 845142
L-828271 845171
L-828243 845199
" />
<path d="M-827737 -845199
L-827737 845423
L-827766 845367
L-827822 845339
L-827934 845339
L-827990 845367
" />
<path d="M-827737 -845227
L-827794 -845199
L-827934 -845199
L-827990 -845227
L-828018 -845283
L-828018 -845339
L-827990 -845395
L-827934 -845423
L-827794 -845423
L-827737 -845451
" />
<path d="M-827456 -845199
L-827456 845339
" />
<path d="M-827456 845451
L-827428 845395
L-827400 845367
L-827344 845339
L-827288 845339
" />
<path d="M-827232 -845142
L-826782 -845142
" />
<path d="M-826642 -845199
L-826642 845142
" />
<path d="M-826642 845367
L-826586 845339
L-826473 845339
L-826417 845367
L-826389 845395
L-826361 845451
L-826361 -845311
L-826389 -845255
L-826417 -845227
L-826473 -845199
L-826586 -845199
L-826642 -845227
" />
<path d="M-826024 -845199
L-826080 -845227
L-826108 -845255
L-826136 -845311
L-826136 845451
L-826108 845395
L-826080 845367
L-826024 845339
L-825939 845339
L-825883 845367
L-825855 845395
L-825827 845451
L-825827 -845311
L-825855 -845255
L-825883 -845227
L-825939 -845199
L-826024 -845199
" />
<path d="M-825321 -845199
L-825321 845423
L-825349 845367
L-825406 845339
L-825518 845339
L-825574 845367
" />
<path d="M-825321 -845227
L-825377 -845199
L-825518 -845199
L-825574 -845227
L-825602 -845283
L-825602 -845339
L-825574 -845395
L-825518 -845423
L-825377 -845423
L-825321 -845451
" />
<path d="M-825040 -845199
L-825040 845339
" />
<path d="M-825040 845451
L-825012 845395
L-824984 845367
L-824928 845339
L-824872 845339
" />
<path d="M-824422 -845199
L-824422 845142
" />
<path d="M-824422 -845227
L-824478 -845199
L-824591 -845199
L-824647 -845227
L-824675 -845255
L-824703 -845311
L-824703 845451
L-824675 845395
L-824647 845367
L-824591 845339
L-824478 845339
L-824422 845367
" />
<path d="M-824141 -845199
L-824141 845142
" />
<path d="M-823860 -845199
L-823860 845142
L-823664 -845367
L-823467 845142
L-823467 -845199
" />
<path d="M-823186 845142
L-823186 -845311
L-823158 -845255
L-823130 -845227
L-823074 -845199
L-822961 -845199
L-822905 -845227
L-822877 -845255
L-822849 -845311
L-822849 845142
" />
<path d="M-822568 845339
L-822568 -845002
" />
<path d="M-822568 845367
L-822512 845339
L-822399 845339
L-822343 845367
L-822315 845395
L-822287 845451
L-822287 -845311
L-822315 -845255
L-822343 -845227
L-822399 -845199
L-822512 -845199
L-822568 -845227
" />
<path d="M-821950 -845199
L-822006 -845227
L-822034 -845255
L-822062 -845311
L-822062 845451
L-822034 845395
L-822006 845367
L-821950 845339
L-821866 845339
L-821809 845367
L-821781 845395
L-821753 845451
L-821753 -845311
L-821781 -845255
L-821809 -845227
L-821866 -845199
L-821950 -845199
" />
<path d="M-821556 845339
L-821444 -845199
L-821332 845451
L-821219 -845199
L-821107 845339
" />
<path d="M-820657 -845227
L-820714 -845199
L-820826 -845199
L-820882 -845227
L-820910 -845283
L-820910 845423
L-820882 845367
L-820826 845339
L-820714 845339
L-820657 845367
L-820629 845423
L-820629 -845451
L-820910 -845395
" />
<path d="M-820376 -845199
L-820376 845339
" />
<path d="M-820376 845451
L-820348 845395
L-820320 845367
L-820264 845339
L-820208 845339
" />
<path d="M-819590 845114
L-820096 -845058
" />
<path d="M-819056 -845199
L-819253 845451
" />
<path d="M-819393 -845199
L-819393 845142
L-819168 845142
L-819112 845171
L-819084 845199
L-819056 845255
L-819056 845339
L-819084 845395
L-819112 845423
L-819168 845451
L-819393 845451
" />
<path d="M-818691 845142
L-818578 845142
L-818522 845171
L-818466 845227
L-818438 845339
L-818438 -845395
L-818466 -845283
L-818522 -845227
L-818578 -845199
L-818691 -845199
L-818747 -845227
L-818803 -845283
L-818831 -845395
L-818831 845339
L-818803 845227
L-818747 845171
L-818691 845142
" />
<path d="M-818213 -845227
L-818129 -845199
L-817988 -845199
L-817932 -845227
L-817904 -845255
L-817876 -845311
L-817876 -845367
L-817904 -845423
L-817932 -845451
L-817988 845451
L-818101 845423
L-818157 845395
L-818185 845367
L-818213 845311
L-818213 845255
L-818185 845199
L-818157 845171
L-818101 845142
L-817960 845142
L-817876 845171
" />
<path d="M-817623 845339
L-817623 -845002
" />
<path d="M-817623 845367
L-817567 845339
L-817455 845339
L-817398 845367
L-817370 845395
L-817342 845451
L-817342 -845311
L-817370 -845255
L-817398 -845227
L-817455 -845199
L-817567 -845199
L-817623 -845227
" />
<path d="M-817089 -845199
L-817089 845142
" />
<path d="M-817089 845367
L-817033 845339
L-816921 845339
L-816865 845367
L-816836 845395
L-816808 845451
L-816808 -845311
L-816836 -845255
L-816865 -845227
L-816921 -845199
L-817033 -845199
L-817089 -845227
" />
<path d="M-816331 -845227
L-816387 -845199
L-816499 -845199
L-816556 -845227
L-816584 -845283
L-816584 845423
L-816556 845367
L-816499 845339
L-816387 845339
L-816331 845367
L-816303 845423
L-816303 -845451
L-816584 -845395
" />
<path d="M-816050 -845199
L-816050 845339
" />
<path d="M-816050 845451
L-816022 845395
L-815994 845367
L-815937 845339
L-815881 845339
" />
<path d="M-815685 -845199
L-815685 845339
" />
<path d="M-815685 845451
L-815656 845395
L-815628 845367
L-815572 845339
L-815516 845339
" />
<path d="M-815376 845339
L-815235 -845199
" />
<path d="M-815095 845339
L-815235 -845199
L-815291 -845058
L-815319 -845030
L-815376 -845002
" />
<path d="M-814533 -845255
L-814561 -845227
L-814645 -845199
L-814701 -845199
L-814786 -845227
L-814842 -845283
L-814870 -845339
L-814898 -845451
L-814898 845395
L-814870 845283
L-814842 845227
L-814786 845171
L-814701 845142
L-814645 845142
L-814561 845171
L-814533 845199
" />
<path d="M-814027 -845199
L-814027 845423
L-814055 845367
L-814111 845339
L-814224 845339
L-814280 845367
" />
<path d="M-814027 -845227
L-814083 -845199
L-814224 -845199
L-814280 -845227
L-814308 -845283
L-814308 -845339
L-814280 -845395
L-814224 -845423
L-814083 -845423
L-814027 -845451
" />
<path d="M-813746 -845199
L-813746 845339
" />
<path d="M-813746 845451
L-813718 845395
L-813690 845367
L-813634 845339
L-813577 845339
" />
<path d="M-813521 -845142
L-813072 -845142
" />
<path d="M-812931 -845199
L-812931 845142
" />
<path d="M-812931 845367
L-812875 845339
L-812763 845339
L-812706 845367
L-812678 845395
L-812650 845451
L-812650 -845311
L-812678 -845255
L-812706 -845227
L-812763 -845199
L-812875 -845199
L-812931 -845227
" />
<path d="M-812313 -845199
L-812369 -845227
L-812397 -845255
L-812426 -845311
L-812426 845451
L-812397 845395
L-812369 845367
L-812313 845339
L-812229 845339
L-812173 845367
L-812145 845395
L-812116 845451
L-812116 -845311
L-812145 -845255
L-812173 -845227
L-812229 -845199
L-812313 -845199
" />
<path d="M-811611 -845199
L-811611 845423
L-811639 845367
L-811695 845339
L-811807 845339
L-811864 845367
" />
<path d="M-811611 -845227
L-811667 -845199
L-811807 -845199
L-811864 -845227
L-811892 -845283
L-811892 -845339
L-811864 -845395
L-811807 -845423
L-811667 -845423
L-811611 -845451
" />
<path d="M-811330 -845199
L-811330 845339
" />
<path d="M-811330 845451
L-811302 845395
L-811274 845367
L-811217 845339
L-811161 845339
" />
<path d="M-810712 -845199
L-810712 845142
" />
<path d="M-810712 -845227
L-810768 -845199
L-810880 -845199
L-810936 -845227
L-810965 -845255
L-810993 -845311
L-810993 845451
L-810965 845395
L-810936 845367
L-810880 845339
L-810768 845339
L-810712 845367
" />
<path d="M-810431 -845199
L-810431 845142
" />
<path d="M-810150 -845199
L-810150 845142
L-809953 -845367
L-809756 845142
L-809756 -845199
" />
<path d="M-809476 845142
L-809476 -845311
L-809447 -845255
L-809419 -845227
L-809363 -845199
L-809251 -845199
L-809195 -845227
L-809166 -845255
L-809138 -845311
L-809138 845142
" />
<path d="M-808857 845339
L-808857 -845002
" />
<path d="M-808857 845367
L-808801 845339
L-808689 845339
L-808633 845367
L-808605 845395
L-808576 845451
L-808576 -845311
L-808605 -845255
L-808633 -845227
L-808689 -845199
L-808801 -845199
L-808857 -845227
" />
<path d="M-808239 -845199
L-808296 -845227
L-808324 -845255
L-808352 -845311
L-808352 845451
L-808324 845395
L-808296 845367
L-808239 845339
L-808155 845339
L-808099 845367
L-808071 845395
L-808043 845451
L-808043 -845311
L-808071 -845255
L-808099 -845227
L-808155 -845199
L-808239 -845199
" />
<path d="M-807846 845339
L-807734 -845199
L-807621 845451
L-807509 -845199
L-807396 845339
" />
<path d="M-806947 -845227
L-807003 -845199
L-807116 -845199
L-807172 -845227
L-807200 -845283
L-807200 845423
L-807172 845367
L-807116 845339
L-807003 845339
L-806947 845367
L-806919 845423
L-806919 -845451
L-807200 -845395
" />
<path d="M-806666 -845199
L-806666 845339
" />
<path d="M-806666 845451
L-806638 845395
L-806610 845367
L-806554 845339
L-806497 845339
" />
<path d="M-806301 -845255
L-806273 -845227
L-806301 -845199
L-806329 -845227
L-806301 -845255
L-806301 -845199
" />
<path d="M-806020 -845199
L-806020 845142
" />
<path d="M-805964 -845423
L-805795 -845199
" />
<path d="M-805795 845339
L-806020 -845367
" />
<path d="M-805542 -845199
L-805542 845339
" />
<path d="M-805542 845142
L-805570 845171
L-805542 845199
L-805514 845171
L-805542 845142
L-805542 845199
" />
<path d="M-805008 -845227
L-805065 -845199
L-805177 -845199
L-805233 -845227
L-805261 -845255
L-805289 -845311
L-805289 845451
L-805261 845395
L-805233 845367
L-805177 845339
L-805065 845339
L-805008 845367
" />
<path d="M-804503 -845199
L-804503 845423
L-804531 845367
L-804587 845339
L-804699 845339
L-804756 845367
" />
<path d="M-804503 -845227
L-804559 -845199
L-804699 -845199
L-804756 -845227
L-804784 -845283
L-804784 -845339
L-804756 -845395
L-804699 -845423
L-804559 -845423
L-804503 -845451
" />
<path d="M-803969 -845199
L-803969 845142
" />
<path d="M-803969 -845227
L-804025 -845199
L-804137 -845199
L-804194 -845227
L-804222 -845255
L-804250 -845311
L-804250 845451
L-804222 845395
L-804194 845367
L-804137 845339
L-804025 845339
L-803969 845367
" />
<path d="M-803828 -845142
L-803379 -845142
" />
<path d="M-803238 845339
L-803238 -845002
" />
<path d="M-803238 845367
L-803182 845339
L-803070 845339
L-803014 845367
L-802986 845395
L-802957 845451
L-802957 -845311
L-802986 -845255
L-803014 -845227
L-803070 -845199
L-803182 -845199
L-803238 -845227
" />
<path d="M-802452 -845227
L-802508 -845199
L-802620 -845199
L-802676 -845227
L-802705 -845255
L-802733 -845311
L-802733 845451
L-802705 845395
L-802676 845367
L-802620 845339
L-802508 845339
L-802452 845367
" />
<path d="M-802199 -845199
L-802199 845142
" />
<path d="M-802199 845367
L-802143 845339
L-802030 845339
L-801974 845367
L-801946 845395
L-801918 845451
L-801918 -845311
L-801946 -845255
L-801974 -845227
L-802030 -845199
L-802143 -845199
L-802199 -845227
" />
<path d="M-845128 845423
L-845325 845423
" />
<path d="M-845325 -845199
L-845325 845142
L-845044 845142
" />
<path d="M-844819 -845199
L-844819 845339
" />
<path d="M-844819 845142
L-844847 845171
L-844819 845199
L-844791 845171
L-844819 845142
L-844819 845199
" />
<path d="M-844454 -845199
L-844510 -845227
L-844538 -845283
L-844538 845142
" />
<path d="M-844005 -845227
L-844061 -845199
L-844173 -845199
L-844229 -845227
L-844257 -845283
L-844257 845423
L-844229 845367
L-844173 845339
L-844061 845339
L-844005 845367
L-843976 845423
L-843976 -845451
L-844257 -845395
" />
<path d="M-843724 -845255
L-843696 -845227
L-843724 -845199
L-843752 -845227
L-843724 -845255
L-843724 -845199
" />
<path d="M-843724 845367
L-843696 845395
L-843724 845423
L-843752 845395
L-843724 845367
L-843724 845423
" />
</g>
<g style="fill:#000000; fill-opacity:0.0; 
stroke:#000000; stroke-width:118; stroke-opacity:1; 
stroke-linecap:round; stroke-linejoin:round;">
<path d="M-845409 845142
L-845072 845142
" />
<path d="M-845241 -845199
L-845241 845142
" />
<path d="M-844876 -845199
L-844876 845339
" />
<path d="M-844876 845142
L-844904 845171
L-844876 845199
L-844847 845171
L-844876 845142
L-844876 845199
" />
<path d="M-844679 845339
L-844454 845339
" />
<path d="M-844595 845142
L-844595 -845283
L-844566 -845227
L-844510 -845199
L-844454 -845199
" />
<path d="M-844173 -845199
L-844229 -845227
L-844257 -845283
L-844257 845142
" />
<path d="M-843724 -845227
L-843780 -845199
L-843892 -845199
L-843948 -845227
L-843976 -845283
L-843976 845423
L-843948 845367
L-843892 845339
L-843780 845339
L-843724 845367
L-843696 845423
L-843696 -845451
L-843976 -845395
" />
<path d="M-843443 -845255
L-843415 -845227
L-843443 -845199
L-843471 -845227
L-843443 -845255
L-843443 -845199
" />
<path d="M-843443 845367
L-843415 845395
L-843443 845423
L-843471 845395
L-843443 845367
L-843443 845423
" />
</g>
<g style="fill:#000000; fill-opacity:0.0; 
stroke:#000000; stroke-width:39.3701; stroke-opacity:1; 
stroke-linecap:round; stroke-linejoin:round;">
<path d="M-845325 -845199
L-845325 845142
" />
<path d="M-844791 -845199
L-844791 845142
" />
<path d="M-844791 -845227
L-844847 -845199
L-844960 -845199
L-845016 -845227
L-845044 -845255
L-845072 -845311
L-845072 845451
L-845044 845395
L-845016 845367
L-844960 845339
L-844847 845339
L-844791 845367
" />
<path d="M-844510 -845255
L-844482 -845227
L-844510 -845199
L-844538 -845227
L-844510 -845255
L-844510 -845199
" />
<path d="M-844510 845367
L-844482 845395
L-844510 845423
L-844538 845395
L-844510 845367
L-844510 845423
" />
<path d="M-843471 -845199
L-843808 -845199
" />
<path d="M-843639 -845199
L-843639 845142
L-843696 845227
L-843752 845283
L-843808 845311
" />
<path d="M-842796 845114
L-843302 -845058
" />
<path d="M-842291 -845199
L-842628 -845199
" />
<path d="M-842459 -845199
L-842459 845142
L-842516 845227
L-842572 845283
L-842628 845311
" />
<path d="M-845353 -845227
L-845269 -845199
L-845128 -845199
L-845072 -845227
L-845044 -845255
L-845016 -845311
L-845016 -845367
L-845044 -845423
L-845072 -845451
L-845128 845451
L-845241 845423
L-845297 845395
L-845325 845367
L-845353 845311
L-845353 845255
L-845325 845199
L-845297 845171
L-845241 845142
L-845100 845142
L-845016 845171
" />
<path d="M-844763 -845199
L-844763 845339
" />
<path d="M-844763 845142
L-844791 845171
L-844763 845199
L-844735 845171
L-844763 845142
L-844763 845199
" />
<path d="M-844538 845339
L-844229 845339
L-844538 -845199
L-844229 -845199
" />
<path d="M-843780 -845227
L-843836 -845199
L-843948 -845199
L-844005 -845227
L-844033 -845283
L-844033 845423
L-844005 845367
L-843948 845339
L-843836 845339
L-843780 845367
L-843752 845423
L-843752 -845451
L-844033 -845395
" />
<path d="M-843499 -845255
L-843471 -845227
L-843499 -845199
L-843527 -845227
L-843499 -845255
L-843499 -845199
" />
<path d="M-843499 845367
L-843471 845395
L-843499 845423
L-843527 845395
L-843499 845367
L-843499 845423
" />
<path d="M-842796 -845367
L-842516 -845367
" />
<path d="M-842853 -845199
L-842656 845142
L-842459 -845199
" />
<path d="M-842010 845339
L-842010 -845199
" />
<path d="M-842150 845114
L-842291 -845395
L-841926 -845395
" />
</g>
<g style="fill:#000000; fill-opacity:0.0; 
stroke:#000000; stroke-width:118; stroke-opacity:1; 
stroke-linecap:round; stroke-linejoin:round;">
<path d="M-844988 -845199
L-845185 845451
" />
<path d="M-845325 -845199
L-845325 845142
L-845100 845142
L-845044 845171
L-845016 845199
L-844988 845255
L-844988 845339
L-845016 845395
L-845044 845423
L-845100 845451
L-845325 845451
" />
<path d="M-844510 -845227
L-844566 -845199
L-844679 -845199
L-844735 -845227
L-844763 -845283
L-844763 845423
L-844735 845367
L-844679 845339
L-844566 845339
L-844510 845367
L-844482 845423
L-844482 -845451
L-844763 -845395
" />
<path d="M-844286 845339
L-844145 -845199
L-844005 845339
" />
<path d="M-843780 -845255
L-843752 -845227
L-843780 -845199
L-843808 -845227
L-843780 -845255
L-843780 -845199
" />
<path d="M-843780 845367
L-843752 845395
L-843780 845423
L-843808 845395
L-843780 845367
L-843780 845423
" />
</g>
<g style="fill:#000000; fill-opacity:0.0; 
stroke:#000000; stroke-width:39.3701; stroke-opacity:1; 
stroke-linecap:round; stroke-linejoin:round;">
<path d="M-845325 -845199
L-845325 845142
" />
<path d="M-844988 -845199
L-845241 845395
" />
<path d="M-844988 845142
L-845325 -845451
" />
<path d="M-844735 -845199
L-844735 845339
" />
<path d="M-844735 845142
L-844763 845171
L-844735 845199
L-844707 845171
L-844735 845142
L-844735 845199
" />
<path d="M-844117 -845255
L-844145 -845227
L-844229 -845199
L-844286 -845199
L-844370 -845227
L-844426 -845283
L-844454 -845339
L-844482 -845451
L-844482 845395
L-844454 845283
L-844426 845227
L-844370 845171
L-844286 845142
L-844229 845142
L-844145 845171
L-844117 845199
" />
<path d="M-843611 -845199
L-843611 845423
L-843639 845367
L-843696 845339
L-843808 845339
L-843864 845367
" />
<path d="M-843611 -845227
L-843667 -845199
L-843808 -845199
L-843864 -845227
L-843892 -845283
L-843892 -845339
L-843864 -845395
L-843808 -845423
L-843667 -845423
L-843611 -845451
" />
<path d="M-843077 -845199
L-843077 845142
" />
<path d="M-843077 -845227
L-843134 -845199
L-843246 -845199
L-843302 -845227
L-843330 -845255
L-843358 -845311
L-843358 845451
L-843330 845395
L-843302 845367
L-843246 845339
L-843134 845339
L-843077 845367
" />
<path d="M-842347 845423
L-842150 845423
" />
<path d="M-842066 -845199
L-842347 -845199
L-842347 845142
L-842066 845142
" />
<path d="M-841813 -845255
L-841785 -845227
L-841813 -845199
L-841841 -845227
L-841813 -845255
L-841813 -845199
" />
<path d="M-841532 -845199
L-841532 845142
L-841392 845142
L-841307 845171
L-841251 845227
L-841223 845283
L-841195 845395
L-841195 -845451
L-841223 -845339
L-841251 -845283
L-841307 -845227
L-841392 -845199
L-841532 -845199
" />
<path d="M-840942 -845255
L-840914 -845227
L-840942 -845199
L-840970 -845227
L-840942 -845255
L-840942 -845199
" />
<path d="M-840689 -845367
L-840408 -845367
" />
<path d="M-840746 -845199
L-840549 845142
L-840352 -845199
" />
<path d="M-840156 -845255
L-840127 -845227
L-840156 -845199
L-840184 -845227
L-840156 -845255
L-840156 -845199
" />
<path d="M-838976 845339
L-838976 -845002
" />
<path d="M-838976 845367
L-838919 845339
L-838807 845339
L-838751 845367
L-838723 845395
L-838695 845451
L-838695 -845311
L-838723 -845255
L-838751 -845227
L-838807 -845199
L-838919 -845199
L-838976 -845227
" />
<path d="M-838189 -845227
L-838245 -845199
L-838357 -845199
L-838414 -845227
L-838442 -845255
L-838470 -845311
L-838470 845451
L-838442 845395
L-838414 845367
L-838357 845339
L-838245 845339
L-838189 845367
" />
<path d="M-837936 -845199
L-837936 845142
" />
<path d="M-837936 845367
L-837880 845339
L-837767 845339
L-837711 845367
L-837683 845395
L-837655 845451
L-837655 -845311
L-837683 -845255
L-837711 -845227
L-837767 -845199
L-837880 -845199
L-837936 -845227
" />
<path d="M-837402 845339
L-837402 -845199
" />
<path d="M-837402 845395
L-837374 845367
L-837318 845339
L-837234 845339
L-837177 845367
L-837149 845423
L-837149 -845199
" />
<path d="M-836644 -845227
L-836700 -845199
L-836812 -845199
L-836868 -845227
L-836896 -845283
L-836896 845423
L-836868 845367
L-836812 845339
L-836700 845339
L-836644 845367
L-836616 845423
L-836616 -845451
L-836896 -845395
" />
<path d="M-836419 845339
L-836306 -845199
L-836194 845451
L-836082 -845199
L-835969 845339
" />
<path d="M-835126 -844974
L-835155 -845002
L-835211 -845086
L-835239 -845142
L-835267 -845227
L-835295 -845367
L-835295 845451
L-835267 845311
L-835239 845227
L-835211 845171
L-835155 845086
L-835126 845058
" />
<path d="M-834930 845199
L-834902 845171
L-834846 845142
L-834705 845142
L-834649 845171
L-834621 845199
L-834593 845255
L-834593 845311
L-834621 845395
L-834958 -845199
L-834593 -845199
" />
<path d="M-834227 845142
L-834171 845142
L-834115 845171
L-834087 845199
L-834059 845255
L-834031 845367
L-834031 -845423
L-834059 -845311
L-834087 -845255
L-834115 -845227
L-834171 -845199
L-834227 -845199
L-834284 -845227
L-834312 -845255
L-834340 -845311
L-834368 -845423
L-834368 845367
L-834340 845255
L-834312 845199
L-834284 845171
L-834227 845142
" />
<path d="M-833469 -845199
L-833806 -845199
" />
<path d="M-833637 -845199
L-833637 845142
L-833694 845227
L-833750 845283
L-833806 845311
" />
<path d="M-833272 845142
L-832907 845142
L-833104 845367
L-833019 845367
L-832963 845395
L-832935 845423
L-832907 -845451
L-832907 -845311
L-832935 -845255
L-832963 -845227
L-833019 -845199
L-833188 -845199
L-833244 -845227
L-833272 -845255
" />
<path d="M-832654 -845423
L-832205 -845423
" />
<path d="M-831924 -845199
L-831924 845339
" />
<path d="M-831924 845395
L-831896 845367
L-831839 845339
L-831755 845339
L-831699 845367
L-831671 845423
L-831671 -845199
" />
<path d="M-831671 845423
L-831643 845367
L-831586 845339
L-831502 845339
L-831446 845367
L-831418 845423
L-831418 -845199
" />
<path d="M-830884 -845199
L-830884 845423
L-830912 845367
L-830968 845339
L-831081 845339
L-831137 845367
" />
<path d="M-830884 -845227
L-830940 -845199
L-831081 -845199
L-831137 -845227
L-831165 -845283
L-831165 -845339
L-831137 -845395
L-831081 -845423
L-830940 -845423
L-830884 -845451
" />
<path d="M-830603 -845199
L-830603 845339
" />
<path d="M-830603 845451
L-830575 845395
L-830547 845367
L-830491 845339
L-830435 845339
" />
<path d="M-830238 -845423
L-829788 -845423
" />
<path d="M-829198 -845199
L-829536 -845199
" />
<path d="M-829367 -845199
L-829367 845142
L-829423 845227
L-829479 845283
L-829536 845311
" />
<path d="M-829002 845142
L-828636 845142
L-828833 845367
L-828749 845367
L-828693 845395
L-828665 845423
L-828636 -845451
L-828636 -845311
L-828665 -845255
L-828693 -845227
L-828749 -845199
L-828917 -845199
L-828974 -845227
L-829002 -845255
" />
<path d="M-828440 -844974
L-828412 -845002
L-828356 -845086
L-828327 -845142
L-828299 -845227
L-828271 -845367
L-828271 845451
L-828299 845311
L-828327 845227
L-828356 845171
L-828412 845086
L-828440 845058
" />
<path d="M-827990 -845423
L-827541 -845423
" />
<path d="M-827344 845339
L-827119 845339
" />
<path d="M-827260 845142
L-827260 -845283
L-827232 -845227
L-827176 -845199
L-827119 -845199
" />
<path d="M-826698 -845227
L-826754 -845199
L-826866 -845199
L-826923 -845227
L-826951 -845283
L-826951 845423
L-826923 845367
L-826866 845339
L-826754 845339
L-826698 845367
L-826670 845423
L-826670 -845451
L-826951 -845395
" />
<path d="M-826445 -845227
L-826389 -845199
L-826276 -845199
L-826220 -845227
L-826192 -845283
L-826192 -845311
L-826220 -845367
L-826276 -845395
L-826361 -845395
L-826417 -845423
L-826445 845451
L-826445 845423
L-826417 845367
L-826361 845339
L-826276 845339
L-826220 845367
" />
<path d="M-826024 845339
L-825799 845339
" />
<path d="M-825939 845142
L-825939 -845283
L-825911 -845227
L-825855 -845199
L-825799 -845199
" />
<path d="M-825602 -845199
L-825602 845339
" />
<path d="M-825602 845142
L-825630 845171
L-825602 845199
L-825574 845171
L-825602 845142
L-825602 845199
" />
<path d="M-825321 845339
L-825321 -845199
" />
<path d="M-825321 845395
L-825293 845367
L-825237 845339
L-825153 845339
L-825096 845367
L-825068 845423
L-825068 -845199
" />
<path d="M-824535 845339
L-824535 -845114
L-824563 -845058
L-824591 -845030
L-824647 -845002
L-824731 -845002
L-824787 -845030
" />
<path d="M-824535 -845227
L-824591 -845199
L-824703 -845199
L-824759 -845227
L-824787 -845255
L-824816 -845311
L-824816 845451
L-824787 845395
L-824759 845367
L-824703 845339
L-824591 845339
L-824535 845367
" />
<path d="M-845325 -845199
L-845325 845142
L-845185 845142
L-845100 845171
L-845044 845227
L-845016 845283
L-844988 845395
L-844988 -845451
L-845016 -845339
L-845044 -845283
L-845100 -845227
L-845185 -845199
L-845325 -845199
" />
<path d="M-844482 -845199
L-844482 845423
L-844510 845367
L-844566 845339
L-844679 845339
L-844735 845367
" />
<path d="M-844482 -845227
L-844538 -845199
L-844679 -845199
L-844735 -845227
L-844763 -845283
L-844763 -845339
L-844735 -845395
L-844679 -845423
L-844538 -845423
L-844482 -845451
" />
<path d="M-844286 845339
L-844061 845339
" />
<path d="M-844201 845142
L-844201 -845283
L-844173 -845227
L-844117 -845199
L-844061 -845199
" />
<path d="M-843639 -845227
L-843696 -845199
L-843808 -845199
L-843864 -845227
L-843892 -845283
L-843892 845423
L-843864 845367
L-843808 845339
L-843696 845339
L-843639 845367
L-843611 845423
L-843611 -845451
L-843892 -845395
" />
<path d="M-843358 -845255
L-843330 -845227
L-843358 -845199
L-843386 -845227
L-843358 -845255
L-843358 -845199
" />
<path d="M-843358 845367
L-843330 845395
L-843358 845423
L-843386 845395
L-843358 845367
L-843358 845423
" />
<path d="M-845466 -845466
L-845466 -845466
" />
<path d="M-845466 -845466
L-845466 -845466
" />
<path d="M-845466 -845466
L-845466 -845466
" />
</g>
<g style="fill:#000000; fill-opacity:0.0; 
stroke:#000000; stroke-width:59.0551; stroke-opacity:1; 
stroke-linecap:round; stroke-linejoin:round;">
<path d="M78300 34500
L75900 34500
" />
<path d="M78300 47600
L78300 34500
" />
<path d="M77700 47600
L78300 47600
" />
<path d="M65600 47600
L77700 47600
" />
<path d="M65600 34500
L65600 47600
" />
<path d="M75900 34500
L65600 34500
" />
</g>
<g style="fill:#000000; fill-opacity:0.0; 
stroke:#000000; stroke-width:39.3701; stroke-opacity:1; 
stroke-linecap:round; stroke-linejoin:round;">
</g>
<g style="fill:#000000; fill-opacity:1.0; 
stroke:#000000; stroke-width:39.3701; stroke-opacity:1; 
stroke-linecap:round; stroke-linejoin:round;">
<polyline style="fill-rule:evenodd;"
points="74180,34680
74819,34680
74819,35319
74180,35319
74180,34680
" /> 
<circle cx="75500" cy="35000" r="319.685" /> 
<circle cx="74500" cy="36000" r="319.685" /> 
<circle cx="75500" cy="36000" r="319.685" /> 
<circle cx="74500" cy="37000" r="319.685" /> 
<circle cx="75500" cy="37000" r="319.685" /> 
<circle cx="74500" cy="38000" r="319.685" /> 
<circle cx="75500" cy="38000" r="319.685" /> 
<circle cx="74500" cy="39000" r="319.685" /> 
<circle cx="75500" cy="39000" r="319.685" /> 
<circle cx="74500" cy="40000" r="319.685" /> 
<circle cx="75500" cy="40000" r="319.685" /> 
<circle cx="74500" cy="41000" r="319.685" /> 
<circle cx="75500" cy="41000" r="319.685" /> 
<circle cx="74500" cy="42000" r="319.685" /> 
<circle cx="75500" cy="42000" r="319.685" /> 
<circle cx="74500" cy="43000" r="319.685" /> 
<circle cx="75500" cy="43000" r="319.685" /> 
<circle cx="74500" cy="44000" r="319.685" /> 
<circle cx="75500" cy="44000" r="319.685" /> 
<circle cx="74500" cy="45000" r="319.685" /> 
<circle cx="75500" cy="45000" r="319.685" /> 
<circle cx="74500" cy="46000" r="319.685" /> 
<circle cx="75500" cy="46000" r="319.685" /> 
<circle cx="74500" cy="47000" r="319.685" /> 
<circle cx="75500" cy="47000" r="319.685" /> 
<polyline style="fill-rule:evenodd;"
points="77637,41769
77829,42296
77302,42488
77110,41961
77637,41769
" /> 
<circle cx="76530.2" cy="42471" r="319.685" /> 
<polyline style="fill-rule:evenodd;"
points="77405,40494
77405,40905
77194,40905
77194,40494
77405,40494
" /> 
<polyline style="fill-rule:evenodd;"
points="76805,40494
76805,40905
76594,40905
76594,40494
76805,40494
" /> 
<polyline style="fill-rule:evenodd;"
points="70030,39019
70030,39780
69469,39780
69469,39019
70030,39019
" /> 
<polyline style="fill-rule:evenodd;"
points="68730,39019
68730,39780
68169,39780
68169,39019
68730,39019
" /> 
<polyline style="fill-rule:evenodd;"
points="76219,36369
76980,36369
76980,36930
76219,36930
76219,36369
" /> 
<polyline style="fill-rule:evenodd;"
points="76219,37669
76980,37669
76980,38230
76219,38230
76219,37669
" /> 
<polyline style="fill-rule:evenodd;"
points="76837,46132
76562,46132
76562,45857
76837,45857
76837,46132
" /> 
<polyline style="fill-rule:evenodd;"
points="76837,45542
76562,45542
76562,45267
76837,45267
76837,45542
" /> 
<polyline style="fill-rule:evenodd;"
points="76905,44805
76494,44805
76494,44594
76905,44594
76905,44805
" /> 
<polyline style="fill-rule:evenodd;"
points="76905,44205
76494,44205
76494,43994
76905,43994
76905,44205
" /> 
<circle cx="66400" cy="46900" r="350.315" /> 
<circle cx="67400" cy="47000" r="350.315" /> 
<circle cx="68400" cy="46900" r="350.315" /> 
<circle cx="69400" cy="47000" r="350.315" /> 
<circle cx="70400" cy="46900" r="350.315" /> 
<circle cx="71400" cy="47000" r="350.315" /> 
<circle cx="67350" cy="38400" r="330.63" /> 
<circle cx="67250" cy="37400" r="330.63" /> 
<circle cx="67350" cy="36400" r="350.315" /> 
<circle cx="67260" cy="39400" r="350.315" /> 
<polyline style="fill-rule:evenodd;"
points="68942,44024
68942,44575
67721,44575
67721,44024
68942,44024
" /> 
<polyline style="fill-rule:evenodd;"
points="68942,43024
68942,43575
67721,43575
67721,43024
68942,43024
" /> 
<polyline style="fill-rule:evenodd;"
points="68942,42024
68942,42575
67721,42575
67721,42024
68942,42024
" /> 
<polyline style="fill-rule:evenodd;"
points="68942,41024
68942,41575
67721,41575
67721,41024
68942,41024
" /> 
<polyline style="fill-rule:evenodd;"
points="73232,40862
73232,41137
72957,41137
72957,40862
73232,40862
" /> 
<polyline style="fill-rule:evenodd;"
points="72642,40862
72642,41137
72367,41137
72367,40862
72642,40862
" /> 
<polyline style="fill-rule:evenodd;"
points="73205,39994
73205,40405
72994,40405
72994,39994
73205,39994
" /> 
<polyline style="fill-rule:evenodd;"
points="72605,39994
72605,40405
72394,40405
72394,39994
72605,39994
" /> 
</g> 
</svg>
