<?xml version="1.0" standalone="no"?>
 <!DOCTYPE svg PUBLIC "-//W3C//DTD SVG 1.1//EN" 
 "http://www.w3.org/Graphics/SVG/1.1/DTD/svg11.dtd"> 
<svg xmlns="http://www.w3.org/2000/svg" version="1.1" 
    width="29.7002cm" height="21.0007cm" viewBox="0 0 116930 82680 ">
<title>SVG Picture created as ROSpberryCar_boardIMUpower-F_Mask.svg date 2013/12/26 19:13:16 </title>
  <desc>Picture generated by PCBNEW </desc>
<g style="fill:#000000; fill-opacity:1;stroke:#000000; stroke-opacity:1;
stroke-linecap:round; stroke-linejoin:round; "
 transform="translate(0 0) scale(1 1)">
</g>
<g style="fill:#000000; fill-opacity:0.0; 
stroke:#000000; stroke-width:600; stroke-opacity:1; 
stroke-linecap:round; stroke-linejoin:round;">
<path d="M72300 35000
L71700 35000
" />
<path d="M72200 36000
L71600 36000
" />
<path d="M72300 37000
L71700 37000
" />
<path d="M72200 38000
L71600 38000
" />
<path d="M72300 39000
L71700 39000
" />
</g>
<g style="fill:#000000; fill-opacity:0.0; 
stroke:#000000; stroke-width:59.0551; stroke-opacity:1; 
stroke-linecap:round; stroke-linejoin:round;">
</g>
<g style="fill:#000000; fill-opacity:1.0; 
stroke:#000000; stroke-width:59.0551; stroke-opacity:1; 
stroke-linecap:round; stroke-linejoin:round;">
<polyline style="fill-rule:evenodd;"
points="74190,34690
74809,34690
74809,35309
74190,35309
74190,34690
" /> 
<circle cx="75500" cy="35000" r="309.843" /> 
<circle cx="74500" cy="36000" r="309.843" /> 
<circle cx="75500" cy="36000" r="309.843" /> 
<circle cx="74500" cy="37000" r="309.843" /> 
<circle cx="75500" cy="37000" r="309.843" /> 
<circle cx="74500" cy="38000" r="309.843" /> 
<circle cx="75500" cy="38000" r="309.843" /> 
<circle cx="74500" cy="39000" r="309.843" /> 
<circle cx="75500" cy="39000" r="309.843" /> 
<circle cx="74500" cy="40000" r="309.843" /> 
<circle cx="75500" cy="40000" r="309.843" /> 
<circle cx="74500" cy="41000" r="309.843" /> 
<circle cx="75500" cy="41000" r="309.843" /> 
<circle cx="74500" cy="42000" r="309.843" /> 
<circle cx="75500" cy="42000" r="309.843" /> 
<circle cx="74500" cy="43000" r="309.843" /> 
<circle cx="75500" cy="43000" r="309.843" /> 
<circle cx="74500" cy="44000" r="309.843" /> 
<circle cx="75500" cy="44000" r="309.843" /> 
<circle cx="74500" cy="45000" r="309.843" /> 
<circle cx="75500" cy="45000" r="309.843" /> 
<circle cx="74500" cy="46000" r="309.843" /> 
<circle cx="75500" cy="46000" r="309.843" /> 
<circle cx="74500" cy="47000" r="309.843" /> 
<circle cx="75500" cy="47000" r="309.843" /> 
<polyline style="fill-rule:evenodd;"
points="77631,41782
77816,42290
77308,42475
77123,41967
77631,41782
" /> 
<circle cx="76530.2" cy="42471" r="309.843" /> 
<polyline style="fill-rule:evenodd;"
points="66690,40809
66690,40190
67309,40190
67309,40809
66690,40809
" /> 
<circle cx="68000" cy="40500" r="309.843" /> 
<circle cx="69000" cy="40500" r="309.843" /> 
<circle cx="70000" cy="40500" r="309.843" /> 
<circle cx="71000" cy="40500" r="309.843" /> 
<polyline style="fill-rule:evenodd;"
points="72904,38595
72904,38204
73095,38204
73095,38595
72904,38595
" /> 
<polyline style="fill-rule:evenodd;"
points="73504,38595
73504,38204
73695,38204
73695,38595
73504,38595
" /> 
<polyline style="fill-rule:evenodd;"
points="73204,40304
73595,40304
73595,40495
73204,40495
73204,40304
" /> 
<polyline style="fill-rule:evenodd;"
points="73204,40904
73595,40904
73595,41095
73204,41095
73204,40904
" /> 
<polyline style="fill-rule:evenodd;"
points="71690,41690
72309,41690
72309,42309
71690,42309
71690,41690
" /> 
<circle cx="72000" cy="43000" r="309.843" /> 
<circle cx="72000" cy="44000" r="309.843" /> 
<circle cx="72000" cy="45000" r="309.843" /> 
<circle cx="72000" cy="46000" r="309.843" /> 
<circle cx="72000" cy="47000" r="309.843" /> 
<polyline style="fill-rule:evenodd;"
points="77395,40504
77395,40895
77204,40895
77204,40504
77395,40504
" /> 
<polyline style="fill-rule:evenodd;"
points="76795,40504
76795,40895
76604,40895
76604,40504
76795,40504
" /> 
<polyline style="fill-rule:evenodd;"
points="68420,41629
68420,42370
67879,42370
67879,41629
68420,41629
" /> 
<polyline style="fill-rule:evenodd;"
points="67120,41629
67120,42370
66579,42370
66579,41629
67120,41629
" /> 
<polyline style="fill-rule:evenodd;"
points="76229,36379
76970,36379
76970,36920
76229,36920
76229,36379
" /> 
<polyline style="fill-rule:evenodd;"
points="76229,37679
76970,37679
76970,38220
76229,38220
76229,37679
" /> 
<polyline style="fill-rule:evenodd;"
points="73822,41872
73822,42127
73567,42127
73567,41872
73822,41872
" /> 
<polyline style="fill-rule:evenodd;"
points="73232,41872
73232,42127
72977,42127
72977,41872
73232,41872
" /> 
<polyline style="fill-rule:evenodd;"
points="76827,46122
76572,46122
76572,45867
76827,45867
76827,46122
" /> 
<polyline style="fill-rule:evenodd;"
points="76827,45532
76572,45532
76572,45277
76827,45277
76827,45532
" /> 
<polyline style="fill-rule:evenodd;"
points="69804,42795
69804,42404
69995,42404
69995,42795
69804,42795
" /> 
<polyline style="fill-rule:evenodd;"
points="70404,42795
70404,42404
70595,42404
70595,42795
70404,42795
" /> 
<polyline style="fill-rule:evenodd;"
points="76895,44795
76504,44795
76504,44604
76895,44604
76895,44795
" /> 
<polyline style="fill-rule:evenodd;"
points="76895,44195
76504,44195
76504,44004
76895,44004
76895,44195
" /> 
</g> 
</svg>
